<svg xmlns="http://www.w3.org/2000/svg" viewBox="0 0 200 160">
  <rect width="200" height="160" fill="#0a0f0a"/>

  <!-- B gauche -->
  <rect x="78" y="18" width="8" height="118" rx="2" fill="#b8922a"/>
  <rect x="60" y="18"  width="20" height="6"  rx="1.5" fill="#b8922a"/>
  <rect x="60" y="76"  width="20" height="5"  rx="1.5" fill="#b8922a"/>
  <rect x="60" y="130" width="20" height="6"  rx="1.5" fill="#b8922a"/>
  <path d="M86,18 Q44,18 44,47 Q44,76 86,76" stroke="#b8922a" stroke-width="6" fill="none" stroke-linecap="round" stroke-linejoin="round"/>
  <path d="M86,76 Q36,76 36,103 Q36,136 86,136" stroke="#b8922a" stroke-width="6" fill="none" stroke-linecap="round" stroke-linejoin="round"/>

  <!-- B droit -->
  <rect x="114" y="18" width="8" height="118" rx="2" fill="#b8922a"/>
  <rect x="120" y="18"  width="20" height="6"  rx="1.5" fill="#b8922a"/>
  <rect x="120" y="76"  width="20" height="5"  rx="1.5" fill="#b8922a"/>
  <rect x="120" y="130" width="20" height="6"  rx="1.5" fill="#b8922a"/>
  <path d="M114,18 Q156,18 156,47 Q156,76 114,76" stroke="#b8922a" stroke-width="6" fill="none" stroke-linecap="round" stroke-linejoin="round"/>
  <path d="M114,76 Q164,76 164,103 Q164,136 114,136" stroke="#b8922a" stroke-width="6" fill="none" stroke-linecap="round" stroke-linejoin="round"/>

  <!-- Séparateur central -->
  <rect x="94" y="14" width="12" height="4" rx="2" fill="#b8922a" opacity=".6"/>
  <rect x="94" y="128" width="12" height="4" rx="2" fill="#b8922a" opacity=".6"/>
</svg>
